<?xml version="1.0" encoding="UTF-8"?>
<svg id="Capa_2" data-name="Capa 2" xmlns="http://www.w3.org/2000/svg" viewBox="0 0 790 520.87">
  <defs>
    <style>
      .cls-1 {
        fill: #dea74e;
      }

      .cls-2 {
        fill: #fff;
      }

      .cls-3 {
        fill: #c85257;
      }

      .cls-4 {
        fill: #acd878;
      }
    </style>
  </defs>
  <g id="Capa_1-2" data-name="Capa 1">
    <g>
      <g>
        <g>
          <path class="cls-2" d="M623.39,362.15c6.89,0,6.89,9.7,0,9.7h-31.35c0,25.31.14,51.04.14,76.35,0,3.52-2.95,5.2-5.34,5.2s-5.06-1.69-5.06-5.2v-76.35h-31.21c-6.61,0-6.61-9.7,0-9.7h72.83Z"/>
          <path class="cls-2" d="M635.35,384.78c0-6.05,10.26-6.19,10.26-.14v63.41c0,6.19-10.26,6.05-10.26,0v-63.27Z"/>
          <path class="cls-2" d="M727.72,448.19c-6.75,3.09-14.34,5.06-21.09,5.06-24.04,0-45.7-19.68-45.7-47.52,0-23.06,16.45-41.34,38.1-44.71,16.45-2.25,30.79,1.83,41.9,13.5,4.22,4.78-3.37,10.55-7.31,6.33-9.56-10.12-20.67-11.67-33.04-10.26-17.29,2.67-29.53,14.9-29.53,35.29s16.45,37.68,35.85,37.68c5.2,0,10.97-1.41,16.31-4.08,4.36-2.25,8.58-5.62,11.53-9.42,3.23-4.78,11.81.42,8.15,5.62-3.8,5.34-9.14,9.56-15.18,12.51Z"/>
        </g>
        <circle class="cls-2" cx="640.48" cy="368.11" r="6.54"/>
        <path class="cls-2" d="M502.58,355.68c-28.3,0-51.23,22.94-51.23,51.23s22.94,51.23,51.23,51.23,51.23-22.94,51.23-51.23-22.94-51.23-51.23-51.23ZM515.07,382.6c.54.27,1.07.55,1.58.85,8.07,4.7,13.5,13.45,13.5,23.46s-5.43,18.76-13.5,23.46c-.52.3-1.05.59-1.58.85h0c-.42.21-.84.4-1.27.59-3.31,1.44-6.95,2.24-10.79,2.24-14.99,0-27.15-12.15-27.15-27.15s12.15-27.15,27.15-27.15c3.84,0,7.48.8,10.79,2.24.43.19.85.38,1.27.59"/>
        <rect class="cls-3" x="451.35" y="465.47" width="101.22" height="13.96"/>
        <rect class="cls-4" x="552.57" y="465.47" width="101.22" height="13.96"/>
        <rect class="cls-1" x="653.78" y="465.47" width="101.22" height="13.96"/>
        <g>
          <path class="cls-2" d="M538.2,511.38c-2.35-.18-4.52-.15-4.52-2.03s2.56-2.55,4.26-2.55c1.32,0,3.79.12,4.43,1.82.38,1.12,2.41.56,2-.76-1.03-2.64-4.17-3.02-6.43-3.02-2.82,0-6.4,1.35-6.4,4.49,0,3.61,3.41,3.88,6.58,4.17,2.38.18,4.61.26,4.61,2.14,0,2.03-3.08,2.67-4.52,2.67-2.14,0-4.43-.68-4.73-2-.26-1.47-2.41-.85-2.06.38.59,2.94,4.34,3.55,6.78,3.55s6.67-.91,6.67-4.61-3.44-3.96-6.67-4.26Z"/>
          <path class="cls-2" d="M561.31,505.1c-.76-.21-1.47-.26-2.17-.26s-1.53.06-2.23.26c-3.23.91-5.14,3.64-5.43,6.9-.09,2.2.47,4.08,1.79,5.64,1.44,1.73,3.52,2.64,5.87,2.64s4.43-.91,5.87-2.64c1.29-1.56,1.88-3.43,1.76-5.64-.26-3.29-2.26-5.99-5.46-6.9ZM563.36,516.34c-1.03,1.17-2.64,1.94-4.23,1.94s-3.17-.7-4.2-1.94c-.88-1.03-1.29-2.41-1.29-3.73,0-2.64,1.44-4.93,3.91-5.58.44-.12,1-.2,1.55-.2s1.15.09,1.61.2c2.5.65,3.93,2.97,3.93,5.64,0,1.26-.47,2.67-1.29,3.67Z"/>
          <path class="cls-2" d="M594.43,505.01c-2.61,0-5.17,1.26-6.22,3.88-.88-2.61-3.41-3.88-5.96-3.88-2.26,0-4.35.94-5.52,3.05v-2.03c0-.56-.38-1.03-1.03-1.03-.59,0-1.06.47-1.06,1.03v13.12c0,1.32,2.14,1.35,2.14,0v-6.61c0-3.29,2.61-5.49,5.49-5.49.91,0,1.76.2,2.52.68,1.35.85,2.03,2.47,2.03,4.14v7.28c0,.65.44,1.03,1.09,1.03s1.09-.38,1.09-1.03v-6.46c0-3.38,2.44-5.67,5.52-5.67,2.47,0,4.49,1.82,4.55,4.35v7.78c0,.65.38,1.03,1.06,1.03s1.09-.38,1.09-1.03v-7.87c0-4.02-3.4-6.28-6.78-6.28Z"/>
          <path class="cls-2" d="M618.77,505.1c-.76-.21-1.47-.26-2.17-.26s-1.53.06-2.23.26c-3.23.91-5.14,3.64-5.43,6.9-.09,2.2.47,4.08,1.79,5.64,1.44,1.73,3.52,2.64,5.87,2.64s4.44-.91,5.87-2.64c1.29-1.56,1.88-3.43,1.76-5.64-.26-3.29-2.26-5.99-5.46-6.9ZM620.82,516.34c-1.03,1.17-2.64,1.94-4.23,1.94s-3.17-.7-4.2-1.94c-.88-1.03-1.29-2.41-1.29-3.73,0-2.64,1.44-4.93,3.91-5.58.44-.12,1-.2,1.55-.2s1.15.09,1.61.2c2.5.65,3.94,2.97,3.94,5.64,0,1.26-.47,2.67-1.29,3.67Z"/>
          <path class="cls-2" d="M637.79,511.38c-2.35-.18-4.52-.15-4.52-2.03s2.56-2.55,4.26-2.55c1.32,0,3.79.12,4.43,1.82.38,1.12,2.41.56,2-.76-1.03-2.64-4.17-3.02-6.43-3.02-2.82,0-6.4,1.35-6.4,4.49,0,3.61,3.41,3.88,6.58,4.17,2.38.18,4.61.26,4.61,2.14,0,2.03-3.08,2.67-4.52,2.67-2.14,0-4.43-.68-4.73-2-.26-1.47-2.41-.85-2.06.38.59,2.94,4.34,3.55,6.78,3.55s6.67-.91,6.67-4.61-3.44-3.96-6.67-4.26Z"/>
          <path class="cls-2" d="M679.56,514.57c-.55-.05-1.01.19-1.28.59-.55.71-1.37,1.37-2.22,1.82-1.03.51-2.15.79-3.17.79-3.84,0-6.95-3.29-6.95-7.34,0-3.73,2.14-6.29,5.69-6.84,2.89-.33,4.83.26,6.45,1.98.65.69,1.62.55,2.2.03.63-.58.68-1.43.1-2.08-2.37-2.49-5.48-3.49-9.22-2.98-4.87.76-8.41,4.91-8.41,9.86,0,5.86,4.43,10.46,10.08,10.46,1.43,0,3.07-.39,4.63-1.1h.01c1.4-.69,2.56-1.65,3.37-2.79.32-.45.37-.97.15-1.44-.25-.53-.82-.91-1.42-.96Z"/>
          <path class="cls-2" d="M703.25,514.57c-.55-.05-1.01.19-1.28.59-.55.71-1.37,1.37-2.22,1.82-1.03.51-2.15.79-3.17.79-3.84,0-6.95-3.29-6.95-7.34,0-3.73,2.14-6.29,5.69-6.84,2.89-.33,4.83.26,6.45,1.98.64.69,1.62.55,2.2.03.63-.58.68-1.43.1-2.08-2.37-2.49-5.48-3.49-9.22-2.98-4.87.76-8.41,4.91-8.41,9.86,0,5.86,4.43,10.46,10.08,10.46,1.43,0,3.07-.39,4.63-1.1h.01c1.4-.69,2.56-1.65,3.37-2.79.32-.45.37-.97.15-1.44-.25-.53-.82-.91-1.42-.96Z"/>
          <path class="cls-2" d="M719.21,504.27c-2.05,0-3.82.67-5.02,1.84v-4.56c0-.84-.7-1.47-1.63-1.47s-1.61.62-1.61,1.47v17.59c0,.94.68,1.59,1.65,1.59s1.59-.64,1.59-1.59v-7.31c0-2.81,2.54-4.49,4.99-4.49,1.97,0,4.02,1.51,4.02,4.05v7.75c0,.94.67,1.59,1.62,1.59s1.59-.64,1.59-1.59v-7.75c0-4.67-3.62-7.11-7.2-7.11Z"/>
          <path class="cls-2" d="M751.42,515.53c-.25-.53-.82-.91-1.42-.96-.56-.05-1.01.19-1.28.59-.55.71-1.37,1.37-2.22,1.82-1.03.51-2.15.79-3.17.79-3.84,0-6.95-3.29-6.95-7.34,0-3.73,2.14-6.29,5.69-6.84,2.89-.33,4.83.26,6.45,1.98.64.69,1.62.55,2.2.03.63-.58.68-1.43.1-2.08-2.37-2.49-5.48-3.49-9.21-2.98-4.87.76-8.41,4.91-8.41,9.86,0,5.86,4.43,10.46,10.08,10.46,1.43,0,3.07-.39,4.63-1.1h.01c1.4-.69,2.56-1.65,3.37-2.79.32-.45.37-.97.15-1.44Z"/>
        </g>
      </g>
      <path class="cls-2" d="M790,23.32c0,10.14-8.22,18.35-18.35,18.35s-18.35-8.22-18.35-18.35,8.22-18.35,18.35-18.35,18.35,8.22,18.35,18.35ZM766.73,8.23c-3.62.75-7.6,4.46-9.29,7.71-8.03,15.46,10.41,30.16,24.05,20.06s3.6-31.55-14.76-27.76Z"/>
      <g>
        <path class="cls-2" d="M322,109c0,26.69,35.1,36.31,47.5,12h30.5c-11.33,53.26-92.1,51.44-108.02,1.52-15.44-48.44,20.75-93.07,71.66-79.66,19,5,38.35,25.28,38.35,45.65v19l-1.5,1.5h-78.5ZM371,91c-.36-34.49-47.93-33.72-49,0h49Z"/>
        <path class="cls-2" d="M535,157h-34v-72.5c0-3.65-4.46-10.25-7.66-12.34-11.02-7.19-27.12-2.94-32.36,9.32-.66,1.55-2.98,8.9-2.98,10.02v65.5h-34V45.5l1.5-1.5h25.5v24l6.59-11.91c21.55-28.46,77.41-16.69,77.41,22.41v78.5Z"/>
        <path class="cls-2" d="M693.78,41.28c44.9-5.07,75.81,24.88,69.11,70.11-9.97,67.24-111.32,63.38-117.76-1.01-3.38-33.79,12.49-65.02,48.66-69.1ZM698.74,67.24c-29.44,5.02-29.62,64.23,2.77,66.75,41.37,3.22,39.45-73.94-2.77-66.75Z"/>
        <path class="cls-2" d="M202,157h-27v-19l-7.96,11.54c-26.21,23.29-73.67,8.73-68.76-30.76,2.34-18.79,23.78-29.78,41.22-29.78h29.5c3.01-25.04-28.69-22.54-45.54-22.04-4.71.14-11.31,3.1-15.46-.46v-22l1.69-1.31c29.48-3.36,76.75-8.69,89.09,26.54,1.01,2.89,3.22,11.15,3.22,13.78v73.5ZM169,107h-27.5c-4.63,0-10.4,6.05-11.26,10.73-2.96,16.12,11.71,23.24,25.49,18.49,12.24-4.22,14.2-17.81,13.28-29.22Z"/>
        <path class="cls-2" d="M48,16v28c.73.27,1.2-1,1.5-1h30l1.5,1.5v22l-1.5,1.5h-30c-.3,0-.77-1.27-1.5-1v52.5c0,4.61,7.6,12.5,12.5,12.5h20.5v25.5l-1.5,1.5h-23c-20.29,0-40.5-16.33-40.5-37.5v-54.5H0v-24h16v-27h32Z"/>
        <path class="cls-2" d="M600,16v27h33v23.5l-1.5,1.5h-31.5v46.5c0,2.02,2.25,9.49,3.55,11.45,1.52,2.29,7.56,6.05,9.95,6.05h19.5v27h-24.5c-7.92,0-22.77-5.88-28.39-11.61-3.62-3.69-10.11-16.07-10.11-20.89v-58.5h-15.5l-1.5-1.5v-22c4.39-3.94,12.88.55,17-2v-26.5h30Z"/>
        <polygon class="cls-2" points="266 0 266 157 235 157 235 24 224 24 224 0 266 0"/>
        <g>
          <path class="cls-2" d="M476,216l5.18-9.32c17.1-25.42,54.1-23.66,65.82,5.84.47,1.17-.76,1.88,2,1.49,8.26-32.87,57.84-32.99,69.88-2.37.74,1.88,3.13,9.45,3.13,10.87v79.5h-31v-68.5c0-.6-1.65-5.94-2.09-6.91-5.5-12.14-24.79-11.1-31.74-.92-.71,1.04-4.17,8.23-4.17,8.83v67.5h-32v-69.5c0-.76-2.17-6.13-2.79-7.21-5.86-10.15-23.9-9.42-30.64-.22-2.16,2.94-5.57,12.02-5.57,15.43v60c0,.3,1.27.77,1,1.5h-33v-110h26v24Z"/>
          <path class="cls-2" d="M221,215l6.98-11.52c23.84-25.51,67.37-16.25,79.78,16.26,19.38,50.75-19.91,108.5-73.77,76.77l-5.99-6.51v53h-32v-150h25v22ZM250.75,216.26c-36.3,4.49-27.43,75.8,11.24,63.23,29.75-9.67,23.63-67.54-11.24-63.23Z"/>
          <path class="cls-2" d="M353,192l23.56,84.05,3.55-.64,23.39-83.41h30.5l-32.73,112.77c-3.65,18.98-20.18,38.23-40.77,38.23h-31.5v-26h27.5c7.95,0,15.57-10.45,17.45-17.51-3.09-4.27-18.29,1.13-20.06-1.11l-33.9-106.37h33Z"/>
          <path class="cls-2" d="M753,255h-78c-.86,25.36,36.06,35.98,46,12h30c-11.25,54.13-95.5,49.58-106.54-3.96-19.26-93.43,120.42-101.1,108.54-8.04ZM723,237c-2.57-32.43-44.73-31.51-48,0h48Z"/>
        </g>
      </g>
      <path class="cls-2" d="M765,13c8.86-1.88,20.12,3.27,9,10.49l6.01,9c-5.91,2.64-6.12-6.16-10-8.49v9s-5.01,0-5.01,0V13ZM770.01,22c5.86,1.21,5.4-8.91-.01-6.49v6.49Z"/>
    </g>
  </g>
</svg>